<?xml version="1.0" encoding="UTF-8" standalone="no"?><!DOCTYPE svg PUBLIC "-//W3C//DTD SVG 1.1//EN" "http://www.w3.org/Graphics/SVG/1.1/DTD/svg11.dtd"><svg width="100%" height="100%" viewBox="0 0 211 51" version="1.1" xmlns="http://www.w3.org/2000/svg" xmlns:xlink="http://www.w3.org/1999/xlink" xml:space="preserve" xmlns:serif="http://www.serif.com/" style="fill-rule:evenodd;clip-rule:evenodd;stroke-linejoin:round;stroke-miterlimit:2;"><rect id="moldura-ícone" serif:id="moldura ícone" x="-0" y="0" width="61.375" height="51.125" style="fill:none;"/><rect id="moldura-Logo" serif:id="moldura Logo" x="0" y="0" width="210.5" height="50.75" style="fill:none;"/><g id="iNuTech-Logo" serif:id="iNuTech Logo"><g id="Retângulo-arredondado" serif:id="Retângulo arredondado"><path id="Principal-recortado" serif:id="Principal recortado" d="M33.016,48.755l5.726,-0c3.195,-0 6.056,-1.443 7.966,-3.713l-13.692,-21.868l-0,25.581Zm-25.29,-21.158l-0,0l-0,19.856c-3.211,-1.767 -5.384,-5.185 -5.384,-9.106l0,-25.946c0,-5.744 4.664,-10.408 10.408,-10.408l25.992,0c5.745,0 10.408,4.664 10.408,10.408l0,20.38l-15.988,-25.545l-10.146,0l-0,41.519l-5.29,-0l-0,-21.158l-0,0c-0.008,-2.753 -2.245,-4.986 -5,-4.986c-2.755,0 -4.993,2.233 -5,4.986Zm5,-20.291c2.759,-0 5,2.24 5,5c-0,2.759 -2.241,5 -5,5c-2.76,-0 -5,-2.241 -5,-5c-0,-2.76 2.24,-5 5,-5Z" style="fill:url(#_Radial1);"/><path id="Mono-recortado" serif:id="Mono recortado" d="M33.016,48.755l5.726,-0c3.195,-0 6.056,-1.443 7.966,-3.713l-13.692,-21.868l-0,25.581Zm-25.29,-21.158l-0,0l-0,19.856c-3.211,-1.767 -5.384,-5.185 -5.384,-9.106l0,-25.946c0,-5.744 4.664,-10.408 10.408,-10.408l25.992,0c5.745,0 10.408,4.664 10.408,10.408l0,20.38l-15.988,-25.545l-10.146,0l-0,41.519l-5.29,-0l-0,-21.158l-0,0c-0.008,-2.753 -2.245,-4.986 -5,-4.986c-2.755,0 -4.993,2.233 -5,4.986Zm5,-20.291c2.759,-0 5,2.24 5,5c-0,2.759 -2.241,5 -5,5c-2.76,-0 -5,-2.241 -5,-5c-0,-2.76 2.24,-5 5,-5Z" style="fill:#2a2a2a;"/></g><g id="iNuTech-Principal" serif:id="iNuTech Principal"><g id="uTech"><path id="h" d="M196.908,20.501c2.032,0 3.771,0.299 5.22,0.895c1.448,0.597 2.637,1.383 3.566,2.36c0.929,0.976 1.61,2.097 2.042,3.363c0.433,1.265 0.422,4.027 0.422,5.365l-0,16.273l-7.781,-0l-0,-14.32c-0,-0.76 -0.174,-2.748 -0.303,-3.562c-0.13,-0.814 -0.4,-1.555 -0.811,-2.224c-0.411,-0.669 -0.994,-1.22 -1.751,-1.654c-0.756,-0.434 -1.761,-0.651 -3.015,-0.651c-1.253,-0 -2.334,0.199 -3.242,0.596c-0.908,0.398 -1.664,0.932 -2.269,1.601c-0.606,0.669 -1.059,1.419 -1.362,2.251c-0.303,0.831 -0.345,2.883 -0.345,3.751l-0,14.212l-7.782,-0l0,-41.008l7.782,0l-0.014,17.534c0,0 1.116,-1.464 1.7,-1.988c0.583,-0.525 1.264,-0.995 2.042,-1.411c0.778,-0.415 1.665,-0.75 2.659,-1.003c0.994,-0.253 2.075,-0.38 3.242,-0.38Z" style="fill:#2a2a2a;fill-rule:nonzero;"/><path id="c" d="M168.98,26.551c-0.606,-0.82 -1.515,-1.507 -2.727,-2.06c-1.211,-0.554 -2.444,-0.831 -3.699,-0.831c-1.428,0 -2.683,0.277 -3.765,0.831c-1.082,0.553 -1.98,1.281 -2.694,2.183c-0.714,0.902 -1.244,1.917 -1.59,3.045c-0.346,1.128 -0.519,2.266 -0.519,3.414c-0,1.148 0.184,2.286 0.552,3.414c0.367,1.128 0.919,2.142 1.655,3.045c0.735,0.902 1.655,1.63 2.758,2.183c1.104,0.554 2.391,0.831 3.862,0.831c1.212,-0 2.424,-0.226 3.635,-0.677c1.212,-0.451 2.185,-1.107 2.921,-1.968l4.868,4.675c-1.298,1.312 -2.953,2.327 -4.965,3.044c-2.012,0.718 -4.187,1.077 -6.524,1.077c-2.293,-0 -4.467,-0.349 -6.523,-1.046c-2.055,-0.697 -3.851,-1.722 -5.387,-3.075c-1.536,-1.354 -2.748,-2.994 -3.635,-4.921c-0.887,-1.928 -1.331,-4.122 -1.331,-6.582c0,-2.378 0.444,-4.531 1.331,-6.459c0.887,-1.927 2.088,-3.567 3.602,-4.921c1.515,-1.353 3.278,-2.398 5.29,-3.137c2.013,-0.738 4.165,-1.107 6.459,-1.107c2.293,0 4.511,0.41 6.653,1.23c2.142,0.821 3.84,1.948 5.095,3.383l-5.322,4.429Z" style="fill:#2a2a2a;fill-rule:nonzero;"/><path id="e" d="M133.066,30.18c-0,-0.943 -0.138,-1.845 -0.412,-2.706c-0.275,-0.861 -0.708,-1.62 -1.299,-2.276c-0.592,-0.656 -1.342,-1.179 -2.25,-1.568c-0.908,-0.39 -1.975,-0.585 -3.2,-0.585c-2.281,0 -4.214,0.667 -5.798,1.999c-1.585,1.333 -2.461,3.045 -2.63,5.136l15.589,0Zm7.604,3.322l0,0.984c0,0.328 -0.021,0.656 -0.063,0.984l-23.13,0c0.084,1.067 0.369,2.04 0.855,2.922c0.486,0.882 1.13,1.64 1.933,2.276c0.803,0.636 1.711,1.138 2.725,1.507c1.014,0.369 2.07,0.554 3.168,0.554c1.902,-0 3.507,-0.339 4.817,-1.015c1.309,-0.677 2.386,-1.61 3.231,-2.799l5.07,3.937c-3,3.936 -7.351,5.905 -13.054,5.905c-2.366,-0 -4.542,-0.359 -6.527,-1.077c-1.986,-0.717 -3.707,-1.732 -5.165,-3.044c-1.457,-1.313 -2.598,-2.922 -3.422,-4.829c-0.824,-1.907 -1.236,-4.07 -1.236,-6.49c0,-2.378 0.412,-4.541 1.236,-6.489c0.824,-1.948 1.954,-3.609 3.39,-4.982c1.437,-1.374 3.137,-2.44 5.102,-3.199c1.964,-0.759 4.087,-1.138 6.368,-1.138c2.113,0 4.067,0.338 5.862,1.015c1.796,0.677 3.348,1.681 4.658,3.014c1.309,1.333 2.334,2.994 3.073,4.983c0.739,1.988 1.109,4.316 1.109,6.981Z" style="fill:#2a2a2a;fill-rule:nonzero;"/><path id="T" d="M97.245,14.121l-12.748,-0l0,-6.372l32.897,0l-0,6.372l-12.748,-0l0,34.636l-7.401,-0l-0,-34.636Z" style="fill:#2a2a2a;fill-rule:nonzero;"/><path id="u" d="M91.872,48.757l-7,-0l-0.026,-5.477l-0.125,-0c-0.666,1.444 -1.821,2.718 -3.464,3.822c-1.644,1.103 -3.589,1.655 -5.837,1.655c-1.955,-0 -3.63,-0.331 -5.024,-0.993c-1.394,-0.662 -2.539,-1.535 -3.433,-2.618c-0.895,-1.084 -1.55,-2.328 -1.966,-3.732c-0.416,-1.404 -0.625,-2.849 -0.625,-4.333l0,-18.056l7.491,0l-0,16.009c-0,0.843 0.062,1.726 0.187,2.649c0.125,0.922 0.395,1.755 0.811,2.497c0.416,0.743 0.989,1.355 1.717,1.836c0.728,0.481 1.696,0.722 2.902,0.722c1.165,0 2.195,-0.23 3.09,-0.692c0.895,-0.461 1.623,-1.053 2.185,-1.775c0.561,-0.723 0.988,-1.555 1.279,-2.498c0.291,-0.943 0.437,-1.896 0.437,-2.859l0,-15.889l7.49,0l-0.089,29.732Z" style="fill:#2a2a2a;fill-rule:nonzero;"/></g><g id="N"><path id="Perna-Negra-Recortada" serif:id="Perna Negra Recortada" d="M59.141,48.757l-0,-41.521l-10.116,0l0,25.354l10.116,16.167Z" style="fill:#2a2a2a;fill-opacity:0.5;"/></g></g></g><defs><radialGradient id="_Radial1" cx="0" cy="0" r="1" gradientUnits="userSpaceOnUse" gradientTransform="matrix(39.1682,39.3939,-39.3548,39.1292,9.37619,8.59475)"><stop offset="0" style="stop-color:#3badcf;stop-opacity:1"/><stop offset="0.14" style="stop-color:#38acd4;stop-opacity:1"/><stop offset="0.25" style="stop-color:#2aa6e8;stop-opacity:1"/><stop offset="0.65" style="stop-color:#216fbe;stop-opacity:1"/><stop offset="1" style="stop-color:#1e5aae;stop-opacity:1"/></radialGradient></defs></svg>
