<?xml version="1.0" encoding="UTF-8" standalone="no"?>
<!DOCTYPE svg
  PUBLIC '-//W3C//DTD SVG 1.1//EN'
  'http://www.w3.org/Graphics/SVG/1.1/DTD/svg11.dtd'>
<svg height="100%" style="fill-rule:evenodd;clip-rule:evenodd;stroke-linejoin:round;stroke-miterlimit:2;" version="1.1" viewBox="0 0 216 56" width="100%" xml:space="preserve" xmlns="http://www.w3.org/2000/svg" xmlns:serif="http://www.serif.com/" xmlns:xlink="http://www.w3.org/1999/xlink">
	<rect height="51.125" id="moldura-ícone" serif:id="moldura ícone" style="fill:none;" width="61.375" x="2.312" y="2.563"/>
	<rect height="50.75" id="moldura-Logo" serif:id="moldura Logo" style="fill:none;" width="210.5" x="2.313" y="2.562"/>
	<g id="iNuTech-Logo" serif:id="iNuTech Logo">
		<g id="Retângulo-arredondado" serif:id="Retângulo arredondado">
			<path d="M35.328,51.317l5.727,0c3.195,0 6.055,-1.443 7.966,-3.712l-13.693,-21.869l0,25.581Zm-25.29,-21.157l0,-0l0,19.855c-3.21,-1.767 -5.383,-5.185 -5.383,-9.106l-0,-25.946c-0,-5.744 4.663,-10.407 10.408,-10.407l25.992,-0c5.744,-0 10.408,4.663 10.408,10.407l-0,20.38l-15.989,-25.544l-10.146,-0l0,41.518l-5.29,0l0,-21.157l0,-0c-0.007,-2.753 -2.245,-4.986 -5,-4.986c-2.755,-0 -4.992,2.233 -5,4.986Zm5,-20.292c2.76,0 5,2.241 5,5c0,2.76 -2.24,5 -5,5c-2.759,0 -5,-2.24 -5,-5c0,-2.759 2.241,-5 5,-5Z" id="Principal-recortado" serif:id="Principal recortado" style="fill:url(#_Radial1);"/>
		</g>
		<g id="iNuTech-Branco" serif:id="iNuTech Branco">
			<g id="uTech">
				<path d="M199.22,23.064c2.032,-0 3.772,0.298 5.22,0.895c1.448,0.596 2.637,1.383 3.566,2.359c0.93,0.977 1.611,2.098 2.043,3.363c0.432,1.266 0.421,4.027 0.421,5.365l0,16.273l-7.781,0l0,-14.32c0,-0.759 -0.173,-2.748 -0.303,-3.561c-0.13,-0.814 -0.4,-1.555 -0.81,-2.224c-0.411,-0.669 -0.995,-1.221 -1.751,-1.655c-0.757,-0.434 -1.762,-0.651 -3.015,-0.651c-1.254,0 -2.335,0.199 -3.242,0.597c-0.908,0.398 -1.665,0.931 -2.27,1.6c-0.605,0.669 -1.059,1.419 -1.362,2.251c-0.302,0.832 -0.345,2.884 -0.345,3.752l0,14.211l-7.781,0l-0,-41.007l7.781,-0l-0.013,17.534c-0,-0 1.116,-1.464 1.699,-1.989c0.584,-0.524 1.265,-0.994 2.043,-1.41c0.778,-0.416 1.664,-0.75 2.658,-1.004c0.995,-0.253 2.075,-0.379 3.242,-0.379Z" id="h" style="fill:#fff;fill-rule:nonzero;"/>
				<path d="M171.292,29.114c-0.606,-0.82 -1.514,-1.507 -2.726,-2.061c-1.212,-0.553 -2.445,-0.83 -3.7,-0.83c-1.428,-0 -2.683,0.277 -3.764,0.83c-1.082,0.554 -1.98,1.282 -2.694,2.184c-0.714,0.902 -1.244,1.917 -1.59,3.045c-0.346,1.127 -0.52,2.265 -0.52,3.413c0,1.149 0.184,2.287 0.552,3.414c0.368,1.128 0.92,2.143 1.655,3.045c0.736,0.902 1.655,1.63 2.759,2.184c1.103,0.553 2.391,0.83 3.862,0.83c1.211,0 2.423,-0.225 3.635,-0.676c1.211,-0.452 2.185,-1.108 2.921,-1.969l4.868,4.675c-1.299,1.312 -2.954,2.327 -4.966,3.045c-2.012,0.717 -4.186,1.076 -6.523,1.076c-2.293,0 -4.468,-0.348 -6.523,-1.045c-2.056,-0.698 -3.851,-1.723 -5.388,-3.076c-1.536,-1.353 -2.747,-2.994 -3.634,-4.921c-0.887,-1.927 -1.331,-4.121 -1.331,-6.582c-0,-2.378 0.444,-4.531 1.331,-6.458c0.887,-1.928 2.087,-3.568 3.602,-4.921c1.514,-1.353 3.278,-2.399 5.29,-3.137c2.012,-0.738 4.165,-1.107 6.458,-1.107c2.294,-0 4.511,0.41 6.653,1.23c2.142,0.82 3.841,1.948 5.096,3.383l-5.323,4.429Z" id="c" style="fill:#fff;fill-rule:nonzero;"/>
				<path d="M135.378,32.743c0,-0.943 -0.137,-1.845 -0.412,-2.707c-0.274,-0.861 -0.707,-1.619 -1.299,-2.275c-0.591,-0.657 -1.341,-1.179 -2.249,-1.569c-0.909,-0.39 -1.975,-0.584 -3.201,-0.584c-2.281,-0 -4.214,0.666 -5.798,1.999c-1.584,1.333 -2.461,3.045 -2.63,5.136l15.589,-0Zm7.605,3.322l-0,0.984c-0,0.328 -0.022,0.656 -0.064,0.984l-23.13,-0c0.085,1.066 0.37,2.04 0.856,2.922c0.486,0.881 1.13,1.64 1.933,2.276c0.802,0.635 1.711,1.138 2.724,1.507c1.014,0.369 2.071,0.553 3.169,0.553c1.901,0 3.506,-0.338 4.816,-1.015c1.31,-0.676 2.387,-1.609 3.232,-2.799l5.069,3.937c-2.999,3.937 -7.35,5.905 -13.054,5.905c-2.365,0 -4.541,-0.359 -6.527,-1.076c-1.985,-0.718 -3.707,-1.733 -5.164,-3.045c-1.458,-1.312 -2.598,-2.922 -3.422,-4.829c-0.824,-1.906 -1.236,-4.07 -1.236,-6.489c-0,-2.378 0.412,-4.542 1.236,-6.489c0.824,-1.948 1.954,-3.609 3.39,-4.983c1.436,-1.374 3.137,-2.44 5.101,-3.198c1.965,-0.759 4.088,-1.138 6.369,-1.138c2.112,-0 4.066,0.338 5.862,1.015c1.795,0.676 3.348,1.681 4.657,3.014c1.31,1.332 2.334,2.993 3.074,4.982c0.739,1.989 1.109,4.316 1.109,6.982Z" id="e" style="fill:#fff;fill-rule:nonzero;"/>
				<path d="M99.557,16.683l-12.747,0l-0,-6.371l32.896,-0l0,6.371l-12.747,0l-0,34.636l-7.402,0l0,-34.636Z" id="T" style="fill:#fff;fill-rule:nonzero;"/>
				<path d="M94.185,51.319l-7,0l-0.027,-5.477l-0.125,0c-0.666,1.445 -1.82,2.719 -3.464,3.822c-1.644,1.104 -3.589,1.655 -5.836,1.655c-1.956,0 -3.631,-0.331 -5.025,-0.993c-1.394,-0.662 -2.538,-1.535 -3.433,-2.618c-0.894,-1.083 -1.55,-2.327 -1.966,-3.731c-0.416,-1.405 -0.624,-2.849 -0.624,-4.334l-0,-18.055l7.49,-0l0,16.009c0,0.843 0.063,1.725 0.187,2.648c0.125,0.923 0.396,1.756 0.812,2.498c0.416,0.742 0.988,1.354 1.716,1.835c0.729,0.482 1.696,0.723 2.903,0.723c1.165,-0 2.195,-0.231 3.089,-0.692c0.895,-0.462 1.623,-1.054 2.185,-1.776c0.562,-0.722 0.988,-1.555 1.28,-2.498c0.291,-0.942 0.437,-1.895 0.437,-2.858l-0,-15.889l7.49,-0l-0.089,29.731Z" id="u" style="fill:#fff;fill-rule:nonzero;"/>
			</g>
			<g id="N">
				<path d="M61.453,51.319l0,-41.52l-10.115,-0l-0,25.353l10.115,16.167Z" id="Perna-Oposta-Branca-Recortada" serif:id="Perna Oposta Branca Recortada" style="fill:#fff;fill-opacity:0.5;"/>
			</g>
		</g>
	</g>
	<defs>
		<radialGradient cx="0" cy="0" gradientTransform="matrix(39.1682,39.3939,-39.3548,39.1292,11.6887,11.1572)" gradientUnits="userSpaceOnUse" id="_Radial1" r="1">
			<stop offset="0" style="stop-color:#fff;stop-opacity:1"/>
			<stop offset="0.14" style="stop-color:#fff;stop-opacity:1"/>
			<stop offset="0.25" style="stop-color:#fff;stop-opacity:1"/>
			<stop offset="0.65" style="stop-color:#fff;stop-opacity:1"/>
			<stop offset="1" style="stop-color:#fff;stop-opacity:1"/>
		</radialGradient>
	</defs>
</svg>
